<?xml version="1.0" encoding="UTF-8"?>
<svg width="430px" height="51px" viewBox="0 0 430 51" version="1.1" xmlns="http://www.w3.org/2000/svg" xmlns:xlink="http://www.w3.org/1999/xlink">
    <title>编组 2备份</title>
    <defs>
        <polygon id="path-1" points="0 0 91.391733 0 91.391733 33.565905 0 33.565905"></polygon>
        <polygon id="path-3" points="0 51 460 51 460 0 0 0"></polygon>
    </defs>
    <g id="下载落地页" stroke="none" stroke-width="1" fill="none" fill-rule="evenodd">
        <g id="下载" transform="translate(-730.000000, -144.000000)">
            <g id="logo" transform="translate(730.000000, 144.000000)">
                <path d="M31.5297065,36.5517 L21.5873089,35.25035 C25.6038593,44.51365 34.8855443,51 45.6960379,51 C56.5065315,51 65.7890734,44.51365 69.8056239,35.25035 L59.8632262,36.5517 C56.4936772,40.60535 51.3947919,43.1936 45.6960379,43.1936 C39.9981408,43.1936 34.8992556,40.6045 31.5297065,36.5517 Z" id="Fill-1" fill-opacity="0.6" fill="#FFFFFF"></path>
                <g id="编组" transform="translate(0.000600, 0.000000)">
                    <mask id="mask-2" fill="white">
                        <use xlink:href="#path-1"></use>
                    </mask>
                    <g id="Clip-4"></g>
                    <path d="M45.695438,27.387255 C39.4850815,27.387255 30.3782154,26.414855 27.3334526,25.983905 L27.3325956,25.983905 C27.3540195,15.957305 35.5825062,7.806655 45.695438,7.806655 C55.8092268,7.806655 64.0377135,15.957305 64.0582804,25.983905 C61.0135175,26.414855 52.0574756,27.387255 45.695438,27.387255 L45.695438,27.387255 Z M76.8037795,25.983905 C74.1866375,25.983905 71.9894036,24.095205 71.5412158,21.537555 C69.3988271,9.303505 58.6423217,-0.000595 45.695438,-0.000595 C32.7485544,-0.000595 21.9929059,9.303505 19.8505172,21.537555 C19.4023294,24.095205 17.2042386,25.983905 14.5879534,25.983905 L0,25.983905 L0,26.021305 C0,26.021305 19.7459686,33.565905 45.695438,33.565905 C71.9362723,33.565905 91.391733,26.021305 91.391733,26.021305 L91.391733,25.983905 L76.8037795,25.983905 Z" id="Fill-3" fill="#FFFFFF" mask="url(#mask-2)"></path>
                </g>
                <mask id="mask-4" fill="white">
                    <use xlink:href="#path-3"></use>
                </mask>
                <g id="Clip-6"></g>
                <path d="M287.537449,6.490855 L264.257396,6.490855 C253.708274,6.490855 245.157572,14.973005 245.157572,25.435655 C245.157572,35.899155 253.708274,44.380455 264.257396,44.380455 L287.537449,44.380455 L287.537449,37.277855 L264.257396,37.277855 C258.911708,37.277855 254.387839,33.792005 252.866743,28.987805 L252.716776,28.493105 C252.062919,26.330705 252.114336,24.016155 252.866743,21.884355 C254.387839,17.079305 258.911708,13.593455 264.257396,13.593455 L287.537449,13.593455 L287.537449,6.490855 Z" id="Fill-19" fill="#FFFFFF" mask="url(#mask-4)"></path>
                <path d="M131.313776,30.17211 C131.313776,34.09571 128.107906,37.27641 124.151342,37.27641 L117.382251,37.27641 C113.425687,37.27641 110.219817,34.09571 110.219817,30.17211 L103.058239,30.17211 C103.058239,38.01846 109.472551,44.38071 117.383964,44.38071 L124.151342,44.38071 C132.061041,44.38071 138.475353,38.01846 138.475353,30.17211 L138.475353,6.49111 L131.313776,6.49111 L131.313776,30.17211 Z" id="Fill-20" fill="#FFFFFF" mask="url(#mask-4)"></path>
                <path d="M172.050098,6.490855 C161.093922,6.490855 152.059041,13.723505 150.736758,23.067555 L158.013167,23.067555 C159.344876,17.669205 165.133611,13.595155 172.050098,13.595155 C178.967443,13.595155 184.757034,17.669205 186.087886,23.067555 L193.365152,23.067555 C192.04287,13.723505 183.007131,6.490855 172.050098,6.490855 M172.050098,37.277005 C165.133611,37.277005 159.344876,33.202955 158.013167,27.803755 L150.736758,27.803755 C152.059041,37.148655 161.093922,44.380455 172.050098,44.380455 C183.007131,44.380455 192.04287,37.148655 193.365152,27.803755 L186.087886,27.803755 C184.757034,33.202955 178.967443,37.277005 172.050098,37.277005" id="Fill-21" fill="#FFFFFF" mask="url(#mask-4)"></path>
                <path d="M220.25136,34.91851 L207.704675,6.49111 L199.349358,6.49111 L214.399211,40.58546 C215.417274,42.89151 217.714772,44.38071 220.253074,44.38071 C222.790519,44.38071 225.088874,42.89151 226.10608,40.58461 L241.154218,6.49111 L232.798045,6.49111 L220.25136,34.91851 Z" id="Fill-22" fill="#FFFFFF" mask="url(#mask-4)"></path>
                <polygon id="Fill-23" fill="#FFFFFF" mask="url(#mask-4)" points="258.713151 28.89405 283.63256 28.89405 283.63256 21.79145 258.713151 21.79145"></polygon>
                <text id="text-ims" x="296" y="44.38" fill="#FFFFFF" font-family="'Century Gothic', 'Futura', 'Avenir Next', 'Avenir', sans-serif" font-size="50" font-weight="600" letter-spacing="0.5">.IMS</text>
            </g>
        </g>
    </g>
</svg>